<?xml version="1.0" encoding="UTF-8" standalone="no"?>
<svg
   version="1.1"
   id="Layer_1"
   x="0px"
   y="0px"
   width="100%"
   viewBox="0 0 1024 1024"
   enable-background="new 0 0 1024 1024"
   xml:space="preserve"
   sodipodi:docname="logo"
   inkscape:version="1.2.2 (732a01da63, 2022-12-09, custom)"
   inkscape:export-filename="../../../../../home/thewilley/Desktop/logotype.png"
   inkscape:export-xdpi="96"
   inkscape:export-ydpi="96"
   xmlns:inkscape="http://www.inkscape.org/namespaces/inkscape"
   xmlns:sodipodi="http://sodipodi.sourceforge.net/DTD/sodipodi-0.dtd"
   xmlns="http://www.w3.org/2000/svg"
   xmlns:svg="http://www.w3.org/2000/svg"><defs
   id="defs853" /><sodipodi:namedview
   id="namedview851"
   pagecolor="#ffffff"
   bordercolor="#000000"
   borderopacity="0.25"
   inkscape:showpageshadow="2"
   inkscape:pageopacity="0.0"
   inkscape:pagecheckerboard="0"
   inkscape:deskcolor="#d1d1d1"
   showgrid="false"
   inkscape:zoom="0.70710678"
   inkscape:cx="506.28845"
   inkscape:cy="523.25902"
   inkscape:window-width="1920"
   inkscape:window-height="951"
   inkscape:window-x="1920"
   inkscape:window-y="32"
   inkscape:window-maximized="1"
   inkscape:current-layer="Layer_1" />

<rect
   style="display:inline;fill:#012729;fill-opacity:1;stroke-width:1.00369"
   id="rect2951"
   width="800"
   height="800"
   x="112.36771"
   y="106.881"
   ry="0" />

<g
   id="g36475"
   inkscape:label="Face"><path
     fill="#f2e778"
     opacity="1"
     stroke="none"
     d="M 373.04962,525.26534 367.25,524.89642 c 4.73209,-6.84381 8.39997,-12.83628 12.41624,-18.96384 3.77911,0.37509 6.35267,0.41632 9.25325,1.20691 -0.91394,2.90155 -3.73114,5.7398 -5.49737,7.74011 -3.18192,3.60364 -6.93225,7.00766 -10.4451,10.31906 z"
     id="path158"
     sodipodi:nodetypes="ccccscc"
     inkscape:label="Eyebrow 2" /><path
     fill="#d6d875"
     opacity="1"
     stroke="none"
     d="m 370.7271,526.78481 c 3.13764,-3.34821 9.15137,-8.40136 12.33329,-12.005 1.76623,-2.00031 3.05717,-5.24458 4.18434,-8.00951 1.32476,0.22028 3.21142,0.31254 5.00396,0.43198 -2.42773,9.4029 -12.43394,16.39503 -21.52159,19.58253 z"
     id="path196"
     sodipodi:nodetypes="csccc"
     inkscape:label="Eyebrow 1" /><path
     fill="#fafcd9"
     opacity="1"
     stroke="none"
     d="m 391.99466,507.20465 41.9379,3.43021 c -4.01603,2.43393 -7.03632,4.27646 -10.06827,6.09964 -9.58829,5.76581 -16.94,12.98626 -16.69022,25.26947 0.0867,4.26538 0.0138,8.53399 0.0138,12.99591 3.45306,0.29376 10.09005,-3.56049 11.10949,-9.19867 2.17975,-12.05567 10.90079,-17.68097 20.19773,-23.12293 4.54028,-2.65771 9.10351,-5.27612 13.65637,-7.91229 l 1.31067,0.83496 c -1.02045,5.28778 -1.89405,10.60901 -3.08975,15.85687 -3.21534,14.11152 -6.40445,28.23316 -9.95276,42.26246 -1.29157,5.10656 -0.43155,8.1054 4.97351,9.69171 3.63473,1.06671 6.86371,3.51458 10.49789,4.58508 4.16727,1.22754 4.38147,3.35535 3.37808,7.02734 -3.72674,13.63837 -7.17868,27.35187 -10.71676,41.04163 -0.19678,0.76129 -0.24066,1.56213 -0.35565,2.34454 0.63812,0.56043 1.27621,1.12091 1.91433,1.68134 0.43277,-1.23029 0.60413,-2.6499 1.33728,-3.66266 11.80817,-16.31152 23.76633,-32.51501 35.49326,-48.88428 2.77157,-3.86877 5.78983,-5.95465 10.63153,-7.49945 11.6554,-3.71893 22.95758,-8.73547 34.04059,-13.99115 7.47412,-3.54431 14.33221,-8.38788 22.57965,-13.31579 -1.30029,3.60199 -2.15881,6.17743 -3.15259,8.6997 -5.02441,12.75342 -11.15918,24.86121 -19.63165,35.76856 -5.67127,7.30108 -12.67169,12.11438 -21.68949,14.05755 -1.44747,0.31189 -2.8508,0.83204 -4.26663,1.28083 -0.10162,0.0323 -0.13781,0.27093 -0.67984,1.43164 2.43161,0.71905 4.7591,1.95288 7.11902,2.01849 18.28372,0.5083 36.57364,0.79913 54.86197,1.13611 3.0177,0.0556 6.03717,0.008 9.05585,0.008 0.12738,0.52662 0.25482,1.05316 0.38226,1.57978 -1.52246,1.6737 -2.88806,3.52984 -4.591,4.99359 -24.05231,20.67322 -49.67157,39.16498 -77.30237,54.76971 -4.43439,2.50434 -9.32983,4.50476 -14.26172,5.74921 -9.49606,2.39606 -17.48434,-1.15521 -22.80173,-9.31201 -0.81738,-1.25373 -1.8024,-2.49396 -2.23367,-3.88776 -2.39163,-7.72913 -8.25284,-10.74866 -15.61688,-11.98706 -4.9383,-0.83045 -9.70899,-1.93677 -8.79868,-8.8197 0.0885,-0.6695 -1.18472,-1.78406 -2.061,-2.24597 -0.99076,-0.52234 -2.24137,-0.57361 -3.3888,-0.77338 -12.54654,-2.18451 -12.68582,-2.16712 -13.96188,-14.43298 -0.46948,-4.51246 -2.67065,-6.43921 -6.93899,-6.84742 -9.89264,-0.94598 -19.22004,-3.8291 -28.00861,-8.47082 -6.03464,-3.18726 -5.84998,-3.59332 -4.34561,-9.96661 2.2876,-9.69172 4.49258,-19.4646 5.72461,-29.32898 1.76394,-14.1236 -2.79624,-26.27881 -13.63636,-35.82758 -5.87246,-5.17291 -11.74432,-10.34662 -17.59878,-15.53986 -1.24454,-1.104 -2.46469,-2.24499 -3.60642,-3.45367 -4.91046,-5.19849 -4.66781,-5.32874 -0.70184,-11.21008 4.63828,-6.87839 8.80914,-14.07309 13.14194,-21.15555 1.18664,-1.93976 2.22686,-3.96909 3.62832,-6.48523 5.94895,8.46292 10.96473,17.07001 20.89414,21.45996 -3.76328,6.34726 -7.74484,12.10568 -12.47693,18.94949 2.88638,0 4.3067,0 6.10223,0.0368 9.08765,-3.1875 15.81678,-8.45117 18.64243,-17.72858 z"
     id="path24"
     inkscape:label="Face"
     sodipodi:nodetypes="ccsscssccssssssccssssccssscsscccssssssssssssssssssccccc" /></g><g
   id="g36429"
   style="display:inline"
   inkscape:label="Lightning"><path
     fill="#fcfcd6"
     opacity="1"
     stroke="none"
     d="m 501.76954,501.5637 c 2.69336,2.51905 5.7162,5.68627 8.46757,8.85744 -1.50885,3.15772 -2.82561,5.69525 -4.82032,7.79412 -3.18674,3.35303 -2.8809,6.17731 0.43975,8.8451 1.61676,1.29882 3.8207,1.84416 5.65881,2.86748 -8.46765,13.91882 -17.55425,28.1722 -26.62395,42.00747 -5.33075,-5.35858 -10.01553,-10.52719 -14.7623,-15.78586 -3.06597,-3.3966 -6.08677,-6.66762 -9.17808,-10.0414 1.01517,-3.82428 2.52169,-8.20105 4.21658,-12.21814 1.45807,-0.42059 2.19527,-0.6413 2.71523,-1.13916 4.73108,-4.52912 8.89489,-9.01597 13.71978,-13.44011 6.53913,-5.99597 13.5068,-11.88289 20.16693,-17.74694 z"
     id="path58"
     sodipodi:nodetypes="ccssccscccsc" /><path
     fill="#f2e87c"
     opacity="1"
     stroke="none"
     d="m 460.95425,546.08606 c 3.30103,3.05377 6.41288,6.40906 9.47885,9.80566 4.74677,5.25867 9.46216,10.54572 14.4762,16.01191 -6.40695,11.55535 -20.265,34.66064 -26.95723,46.02477 -0.38025,-0.18719 -0.21962,-0.10833 -0.59987,-0.29545 2.35083,-7.19904 11.32654,-26.40529 13.81015,-34.01106 -5.49011,-2.56043 -10.65985,-5.12018 -15.95782,-7.37921 -2.62994,-1.12134 -3.49701,-2.43183 -2.51291,-5.28608 2.80695,-8.14123 5.38489,-16.36138 8.26263,-24.87054 z"
     id="path84"
     sodipodi:nodetypes="csccccssc" /><path
     fill="#f5e977"
     opacity="1"
     stroke="none"
     d="m 501.77417,501.56805 c -6.53513,6.15415 -13.2861,11.91907 -19.82523,17.91504 -4.82489,4.42414 -9.34884,9.17523 -14.07992,13.70435 -0.51996,0.49786 -1.52179,0.49231 -2.67185,0.7066 5.37802,-17.17846 11.12772,-34.34329 16.70209,-50.98468 6.693,6.22489 13.22147,12.29672 19.87491,18.65869 z"
     id="path90" /><path
     fill="#f1e77d"
     opacity="1"
     stroke="none"
     d="m 511.50995,529.94507 c -2.11704,-0.84528 -4.13831,-1.64063 -5.75507,-2.93945 -3.32065,-2.66779 -3.62649,-5.49207 -0.43975,-8.8451 1.99471,-2.09887 3.21325,-4.93542 4.87982,-7.78308 8.21307,7.48602 8.21295,7.48596 2.7788,17.24353 -0.39752,0.71393 -0.79003,1.4306 -1.4638,2.3241 z"
     id="path144" /></g>
<path
   fill="#fbfdda"
   opacity="1"
   stroke="none"
   d="m 676.99347,455.08234 c 6.46943,-2.30205 28.50647,-4.02634 14.14697,4.3346 -34.02445,14.22633 -74.90621,15.37147 -108.48261,-0.94286 -15.04339,-7.11789 -22.25974,-26.14305 -41.32575,-23.22427 -20.0216,-1.20838 -39.6583,-6.11211 -57.62694,-14.84078 -23.50387,-9.48841 -46.38667,-21.11203 -67.39569,-35.31815 -17.47737,-10.79976 -29.1436,-28.58216 -35.34873,-47.89731 -1.68864,-7.95162 -11.97865,-28.44704 -10.69206,-8.97459 2.09257,45.03983 25.44512,84.76882 46.48171,123.33699 -14.088,-3.17951 -26.6364,-20.82018 -35.40552,-30.98003 -4.98559,-6.48835 -20.45842,-15.65523 -10.63868,0.0227 13.65231,30.45263 40.02963,55.77575 72.48887,64.92422 -2.87653,4.59945 -24.11033,2.38318 -33.52651,-1.3522 -34.06738,-11.73648 -53.15091,-45.85742 -65.00391,-77.75604 -15.33082,-43.78022 -9.49826,-92.62706 8.11725,-134.73118 18.95134,-11.31213 39.98875,-19.29833 60.22133,-28.2658 29.47567,-11.39484 58.85453,-24.88774 90.48588,-28.76443 30.1868,-3.58333 59.95563,4.25842 89.31973,10.26585 22.63075,5.81474 44.72245,14.6109 64.28366,27.49073 -13.81034,11.44932 -31.76771,-0.80769 -47.52405,0.0848 -21.42269,-2.17694 -43.02589,-3.4689 -64.52745,-3.37862 4.75176,10.81838 29.4543,12.33043 43.0532,16.83009 23.82356,6.54265 45.00406,23.38339 56.16328,45.46686 -16.82497,7.91169 -43.0632,7.92284 -40.91564,-17.21445 -8.2745,-6.16135 -18.27882,18.56249 -31.19879,10.1045 -9.62971,-0.20236 -34.58051,-2.12663 -34.73221,3.77293 11.51191,8.87202 41.68423,1.93119 38.73318,21.07017 3.42632,11.65917 -6.41569,9.34569 -14.08971,9.31527 h -29.51293 c 16.13708,17.0841 32.27415,34.16822 48.41126,51.25229 -21.76711,0.20816 -42.90367,-5.95928 -63.45893,-12.48825 5.74754,10.13993 21.31513,17.07256 32.72681,22.80551 22.9402,7.90665 44.03984,20.64297 61.65222,37.31011 17.97825,14.54905 42.68335,18.66131 65.12079,17.74161 M 489.6344,388.84567 c 6.88139,4.12031 21.70504,15.78038 11.9631,0.7732 -16.15934,-25.4244 -37.41505,-47.81501 -61.62889,-65.70498 -8.70208,-7.70875 -12.11246,-1.97539 -5.49063,6.19369 14.71188,22.56383 33.95294,42.22018 55.15642,58.73809 z"
   id="path20"
   sodipodi:nodetypes="ccccccccccccccccccccccccccccccccccccccc"
   inkscape:label="Hair" /><path
   id="path26"
   d="m 330.50195,287.16211 c -6.86056,3.18338 -12.64643,5.35938 -17.92773,8.41211 -16.41865,9.49032 -27.62178,24.28724 -38.68164,39.1289 -14.93326,22.5487 -27.19035,43.72472 -34.52149,66.5 -14.00221,34.80535 -17.03662,75.47774 -16.88868,100.35547 4.59717,-11.48839 11.02109,-21.95866 12.25781,-34.35937 1.35017,-13.37899 5.64399,-31.62115 12.05662,-42.20511 3.70435,-7.29913 8.67585,-6.48647 14.50195,-10.34766 -17.53021,15.05483 -9.14281,55.22469 -3.99021,75.00196 2.07761,12.07134 5.60038,23.21772 11.05274,34.45703 4.48367,-13.34832 14.59632,-21.4665 24.05273,-28.99219 21.83336,-22.7457 32.28468,-48.14834 32.55464,-76.12118 -0.0151,-3.37344 -0.15483,-5.87153 -3.05078,-6.60547 -9.02604,18.64652 -12.79222,26.35136 -15.41541,32.46269 -4.54507,7.25125 -24.16161,48.02354 -27.70569,48.60175 -2.05573,-14.79706 -3.38257,-30.84805 -0.30081,-44.40039 4.89326,-27.85319 17.66424,-58.04178 35.33203,-75.60547 8.80471,-9.35482 3.69227,-19.38413 3.92188,-29.58203 -19.27729,12.90051 -35.18191,32.52136 -49.83984,47.50391 -1.4271,1.45605 -3.71625,2.06848 -6.41602,3.50195 0.26996,-2.28311 0.24707,-3.28262 0.51758,-4.19531 9.60476,-32.40884 26.69156,-59.29402 56.61914,-76.72461 1.97101,-1.14798 4.67233,-2.41632 5.3125,-4.23438 2.44314,-6.93825 4.18018,-14.1229 6.55859,-22.55273 z"
   sodipodi:nodetypes="cscccccccccccccccccccsscc"
   style="fill:#7be097;fill-opacity:1" />
<path
   fill="#F6EB73"
   opacity="1.000000"
   stroke="none"
   d=" M504.377258,733.377625   C537.602478,702.005310 577.528198,683.671326 619.958008,669.529785   C661.396301,655.718567 703.634094,645.049683 746.158813,635.359436   C751.780212,634.078430 757.420166,633.709473 762.216309,638.037476   C767.915833,643.180603 767.338745,648.224548 760.170044,650.766907   C751.247742,653.931152 742.137512,656.623840 732.993042,659.093079   C691.884644,670.193115 650.523804,680.427429 610.574097,695.428528   C565.511108,712.349731 524.173279,735.885132 486.164673,765.364868   C480.871643,769.470154 475.337952,773.265137 469.818604,777.274170   C468.814545,772.914368 485.979462,751.273682 504.377258,733.377625  z"
   id="path28" />
<path
   id="path30"
   d="m 685.70508,323.11719 c -19.2983,2.42237 -31.68806,14.12105 -34.53516,29.10742 -3.43615,19.59837 9.82869,31.93301 27.65625,24.93164 6.42828,-2.5245 5.83559,0.23251 6.37852,5.06602 -0.88809,7.73994 -9.47842,15.37542 12.56399,36.03632 9.61566,7.56709 32.24515,5.44304 40.04968,-1.15508 8.47412,-8.75544 9.86494,-21.41366 3.6465,-33.05276 -4.23864,-7.37932 -11.33283,-9.68365 -19.20507,-10.88672 -1.89081,-0.28894 -4.7641,-2.04956 -4.97852,-3.46679 -0.28699,-1.89704 1.03314,-4.84485 2.63477,-6.04297 2.84588,-2.12888 6.31018,-3.61438 9.7207,-4.75782 4.07781,-1.36709 8.46863,-1.79989 12.55273,-3.15234 11.04125,-3.65618 13.25555,-14.59797 4.53321,-22.05664 -1.74579,-1.49289 -3.76295,-2.78314 -5.84961,-3.74414 -12.34502,-5.68514 -22.78461,-0.12932 -25.24414,12.96875 -0.93811,4.99627 -2.31855,10.07026 -4.50586,14.625 -2.18591,4.55163 -5.78803,4.44409 -7.375,-0.30078 -2.23462,-6.68133 -3.74726,-13.71705 -4.59766,-20.71875 -0.8833,-7.27221 -5.94984,-13.4989 -13.44531,-13.40039 z"
   sodipodi:nodetypes="ccsccccsssssscsssssc"
   style="fill:#7eee97;fill-opacity:1" />
<path
   fill="#f6e975"
   opacity="1"
   stroke="none"
   d="m 318.89893,656.18378 c 3.59172,6.06899 9.21188,10.92261 13.80778,16.37261 7.71077,8.49409 15.43859,16.97268 23.16624,25.45142 -9.16127,9.23942 -18.1716,18.64142 -27.26301,27.93857 -5.54765,4.4312 -9.85219,-3.29251 -14.05658,-5.99482 -10.61714,-11.10928 -21.57895,-21.92764 -31.95198,-33.24634 -5.40528,-7.761 -11.12284,-15.57643 -16.4718,-23.20687 -5.51062,-12.27809 -14.3728,-23.89566 -14.32503,-37.90994 0.37992,-10.49249 3.33799,-22.22457 12.13084,-28.83197 2.74831,-2.39902 5.49355,-3.47434 4.61198,1.37105 0.88686,21.74756 5.70064,43.5219 16.00732,62.81267 5.89009,11.70737 14.04211,22.96812 25.57103,29.6043 3.01649,1.58587 6.49089,2.23038 3.59166,-1.8138 -5.19669,-14.1639 -13.09039,-28.15138 -12.61548,-43.66556 0.22058,-3.24703 1.80603,-11.78983 4.28676,-10.81832 4.43061,7.35691 8.96897,14.64813 13.51027,21.937 z"
   id="path32" />
<path
   fill="#f7eb72"
   opacity="1"
   stroke="none"
   d="m 684.95631,604.8987 c 84.50329,-47.14832 81.55081,-51.65334 115.64709,-66.05047 -27.34135,24.69493 -47.41712,40.23995 -51.49703,52.14895 -37.53868,24.38441 -124.18634,54.41279 -156.50509,75.27964 19.51928,-27.1477 60.97715,-45.89181 92.35503,-61.37812 z"
   id="path34"
   sodipodi:nodetypes="ccccc" />
<path
   id="path36"
   d="m 703.98047,682.36328 c -6.63983,2.1307 -13.46552,8.82029 -34.93359,15.46094 -42.84219,12.84581 -84.87144,27.68001 -124.05274,49.4707 -32.32322,19.43917 -63.53881,40.59525 -73.35742,47.94922 0.11548,0.41089 0.23022,0.82153 0.3457,1.23242 36.38171,4.75437 54.87288,-17.17885 83.25,-35.39844 38.41145,-23.72763 78.97649,-35.15049 125.51953,-41.4082 -2.09582,-2.45222 -3.82178,-4.46695 -5.86328,-6.4414 11.49156,-8.29722 29.15943,-17.30537 35.32621,-27.11719 -3.52075,-2.48513 -3.92725,-3.86639 -6.23437,-3.74805 z"
   sodipodi:nodetypes="cccccccccsc"
   style="fill:#81e09e;fill-opacity:1" />


<path
   fill="#F3E976"
   opacity="1.000000"
   stroke="none"
   d=" M640.956787,759.854553   C633.962036,762.393433 627.346924,764.823425 620.731812,767.253418   C620.837952,767.859802 620.944092,768.466187 621.050232,769.072510   C623.206238,769.195740 625.362305,769.318970 628.408447,769.493103   C598.454712,783.803223 567.110779,790.276123 535.363220,795.495972   C578.032349,761.984070 625.090088,739.671143 680.682800,738.834106   C673.066528,743.709961 667.065186,751.327026 656.619812,751.394287   C653.707397,751.413086 649.706238,751.268494 648.777649,756.412476   C648.505188,757.922119 643.936218,758.656189 640.956787,759.854553  z"
   id="path42" />
<path
   id="path44"
   d="m 448.34961,419.03711 c -0.34256,0.53171 -0.68475,1.064 -1.02734,1.5957 36.82551,38.65684 84.2872,61.2455 110.41796,94.61133 20.63261,-1.87862 6.64735,18.29494 52.92579,7.13867 0.14764,-0.77508 0.29577,-1.55108 0.44336,-2.32617 -17.1629,0.25496 -52.6103,-22.59585 -66.12305,-42.5293 -6.19473,-9.13739 -15.65112,-22.51848 -24.0293,-25.99414 -27.77399,-9.97024 -50.46953,-21.03316 -72.60742,-32.49609 z"
   sodipodi:nodetypes="cccccccc"
   style="fill:#7dd39b;fill-opacity:1" />
<path
   fill="#F6E975"
   opacity="1.000000"
   stroke="none"
   d=" M622.592407,424.368530   C612.316162,410.620697 619.246338,389.753540 635.559265,384.600616   C636.519897,384.297180 638.357788,384.687531 638.886353,385.412231   C646.766479,396.216400 656.869446,399.661163 669.567322,395.119476   C669.984314,394.970337 670.531067,395.183838 671.604248,395.281952   C670.978760,405.255341 674.520935,414.070618 679.551392,422.449921   C682.057251,426.623901 681.275391,430.677765 677.756714,433.723785   C674.143372,436.851746 669.937378,436.114777 666.147156,433.774994   C660.438965,430.251190 658.425659,423.495667 660.815125,416.621277   C661.394104,414.955688 662.086487,413.329529 663.191040,410.492798   C656.982239,414.512360 653.077698,418.340668 652.679688,425.108459   C652.564392,427.067932 650.780090,429.710876 649.017761,430.658752   C640.664612,435.151459 630.677063,432.660645 622.592407,424.368530  z"
   id="path46" />
<path
   id="path48"
   d="m 439.1582,686.08203 c -15.13624,12.95342 -30.9723,26.32564 -46.49414,40.05274 -1.6427,1.45281 -2.34979,5.14691 -1.93359,7.52929 1.45508,8.32867 3.60388,16.53523 5.46875,24.79297 3.19976,14.16899 3.19392,14.1717 17.08594,18.77539 7.72502,2.90185 16.26478,4.69768 22.90429,6.90625 1.28632,0.55493 2.07407,0.61841 2.86133,0.68164 -0.66733,-1.6173 -1.33478,-3.23553 -2.20508,-5.33008 -4.30345,-6.12467 -8.17151,-9.05507 -14.53726,-10.63867 -17.14873,-4.64155 -14.86736,-19.06085 -15.22656,-26.80078 14.98485,-18.25184 33.67357,-27.6686 51.16211,-39.16607 -10.70403,-4.46486 -14.03352,-7.86936 -19.08594,-16.80274 z"
   sodipodi:nodetypes="csssccccccccc"
   style="fill:#f6e975;fill-opacity:1"
   inkscape:label="path48" />

<path
   fill="#f5e977"
   opacity="1"
   stroke="none"
   d="m 612.37952,332.7948 c 4.84679,1.83189 9.65158,4.51829 14.99921,4.18521 3.08391,-0.1735 7.19202,1.49093 6.67776,5.21904 -0.83544,4.42211 -1.10867,8.91709 -1.21288,13.41044 0.24177,3.43821 -3.43236,4.7159 -6.15458,3.43922 -4.72753,-1.29059 -8.46047,-5.34474 -13.50464,-5.5947 3.3657,3.85912 8.18727,7.2016 9.0489,12.59632 1.01611,5.23968 -2.9109,10.38126 -7.95387,11.55376 -8.00314,2.39775 -17.18655,1.5974 -24.0514,-3.41942 -4.77929,-3.22296 -9.12425,-8.63201 -8.20135,-14.7401 0.87589,-6.01688 5.95299,-10.04188 10.66195,-13.26569 1.1868,-1.44146 5.422,-2.39639 4.18106,-4.22873 -4.53585,-5.8452 -6.29062,-13.79244 -4.14078,-20.92782 0.82397,-1.89115 1.46213,-7.48055 3.71149,-3.86773 5.30169,5.22494 10.60692,10.44637 15.93913,15.6402 z"
   id="path52" />
<path
   id="path54"
   d="m 621.32227,564.35938 c -2.52783,1.64697 -6.97669,3.8778 -8.50977,2.83984 -4.10675,-2.78058 -5.96814,0.16168 -8.57227,1.65039 -8.12181,4.64288 -16.23011,9.30957 -24.34375,13.9668 l -1.04687,-1.28907 c 5.08319,-11.4384 11.70062,-22.35212 13.00977,-35.08007 -0.52662,-0.27588 -1.05341,-0.55225 -1.58008,-0.82813 -10.88165,17.88212 -21.76314,35.76381 -32.74024,53.80274 31.67831,-6.91721 54.17246,-9.26885 73.72656,-34.72264 0.63556,0.38244 1.27259,0.76605 1.90821,1.14844 -1.38732,4.84775 -11.58635,21.08325 -9.94141,22.80273 8.65069,-5.3208 15.70533,-12.45222 21.75586,-20.7207 8.65645,-10.98107 19.94519,-33.79213 15.78655,-41.16152 -2.42308,-1.82049 -21.47588,25.73956 -39.45256,37.59103 z"
   sodipodi:nodetypes="csscccccccccccc"
   style="fill:#7dd39b;fill-opacity:1" />
<path
   fill="#f6e975"
   opacity="1"
   stroke="none"
   d="m 696.48206,280.5733 c 2.82647,1.91552 6.62053,3.26966 7.68558,6.88013 0.97478,3.02996 -0.5635,5.97238 -1.31045,8.83723 -0.67002,4.75971 1.14662,9.38705 1.50664,14.09563 -8.51777,-0.63793 -17.4202,-2.58676 -24.01086,-8.37327 -1.57795,-0.97538 -3.33775,-3.78809 -4.43298,-4.19398 -1.11694,3.84226 -1.85095,7.93625 -4.04834,11.34451 -2.07149,1.9242 -4.52738,3.7855 -7.38001,4.27939 -3.36816,0.23905 -5.38599,-3.0375 -7.04497,-5.47287 -5.61545,-8.37448 -7.67412,-19.23963 -4.74283,-28.96221 1.62631,-5.428 6.28815,-9.58638 11.7106,-11.02982 7.12138,-2.07723 15.22748,-1.80918 21.73359,1.98447 3.81648,3.12763 6.88637,7.09609 10.33403,10.61079 z"
   id="path56" />

<path
   id="path60"
   d="m 753.82042,487.84682 c -1.48612,0.0139 -8.00941,16.90714 -18.02761,15.44825 -1.77248,-0.25812 -5.36598,7.02096 -7.72126,14.39116 -10.91291,31.51564 -28.58761,50.66547 -51.0696,68.30791 0.24335,0.49774 0.48713,0.9964 0.73047,1.49414 25.45635,-6.42196 67.68161,-28.1622 70.25591,-48.43554 -0.95801,-0.26055 -1.84949,-0.087 -2.74023,0.0859 -3.12762,3.4248 -6.9195,5.22345 -12.44532,5.03906 11.93457,-16.41713 19.16839,-38.575 22.40034,-56.09175 -0.83107,-0.22271 -0.6329,-0.0341 -1.3827,-0.23913 z"
   sodipodi:nodetypes="cscccccccc"
   style="fill:#81e09e;fill-opacity:1" />

<path
   id="path64"
   d="m 780.625,390.95703 c -18.48322,8.50191 -34.66549,39.20204 -18.22852,49.99414 -5.83812,4.29498 -8.52496,9.62721 -8.55078,16.16602 -0.0218,5.5183 3.69111,9.48279 9.19532,9.8457 7.72484,0.50934 14.47748,-2.4563 21.73046,-6.07422 -11.4337,-9.05742 -15.14947,-20.16609 -12.3125,-33.44726 2.29267,1.46139 4.26972,3.79214 6.16211,3.72656 5.72137,-0.19824 10.24225,-6.06452 9.42383,-11.78906 -3.05253,-14.18468 -2.06855,-9.69657 -7.41992,-28.42188 z"
   sodipodi:nodetypes="ccssccscc"
   style="fill:#7eee97;fill-opacity:1" />

<path
   id="path68"
   d="m 308.33398,559.94727 c -4.01901,37.01812 6.08663,54.49451 20.72071,83.84765 2.66131,-3.46218 4.18127,-5.83166 6.125,-7.77734 0.79989,-0.80066 1.41294,-1.36627 2.71076,-1.66949 5.18503,9.80388 10.77963,17.71588 20.58806,26.97027 0.28067,-1.35144 0.12249,-2.33392 -0.33985,-3.14258 -4.94531,-8.64968 -9.54462,-17.41636 -10.57812,-27.57617 -0.0938,-0.92218 -0.63318,-1.88989 -1.20508,-2.6582 -17.67309,-18.91645 -16.46698,-30.13702 -25.40034,-63.00782 -0.0419,-0.15415 -0.34191,-0.0924 -0.36754,0.0639 -1.02118,6.22562 -1.56832,11.77868 -2.09926,16.85214 -1.02003,0.82148 -2.34603,1.74172 -3.56445,1.80664 -4.3569,-7.28382 -5.3215,-16.7257 -6.58985,-23.70898 z"
   sodipodi:nodetypes="scsccsscsscccs"
   style="fill:#7dd39b;fill-opacity:1" />

<path
   fill="#F5E873"
   opacity="1.000000"
   stroke="none"
   d=" M226.695190,541.673706   C229.647690,534.857422 232.419281,528.393311 235.339340,521.996948   C235.734772,521.130737 236.953903,519.989868 237.649872,520.079346   C238.484848,520.186646 239.426697,521.350952 239.876480,522.274597   C244.272537,531.302551 248.746902,540.301514 252.739944,549.507812   C253.423065,551.082764 252.466324,553.948669 251.360947,555.618286   C246.869568,562.402405 241.862396,568.845093 237.374207,575.631165   C234.837784,579.466248 232.940674,583.724182 230.742233,587.816406   C225.363068,580.451660 222.932419,553.620300 226.695190,541.673706  z"
   id="path72" />
<path
   fill="#7be79a"
   opacity="1"
   stroke="none"
   d="m 784.51953,530.51501 c -3.36295,2.90194 -6.76148,5.76223 -10.15784,8.62488 1.6579,-9.37701 7.12584,-17.6937 7.97121,-27.25342 0.14524,-1.90968 0.0661,-3.83859 -0.26735,-5.7254 -2.06424,0.40401 -4.91488,3.68342 -6.54146,0.99126 -1.90482,-2.13509 -2.77611,-5.01531 -2.39515,-7.84339 0.31871,-6.61548 3.18316,-13.19307 8.19268,-17.58718 1.97547,-1.7049 4.17162,0.2698 5.61451,1.66143 2.52684,2.1354 5.61892,3.36927 8.54892,4.81294 2.97466,1.5895 4.42774,4.99986 4.36228,8.26322 0.14036,5.03371 1.76843,10.09451 0.46211,15.10381 -1.02301,4.79035 -4.51202,8.65681 -8.61995,11.13106 -2.86825,2.1268 -4.76463,5.23679 -7.16996,7.82079 z"
   id="path74" />
<path
   fill="#f6e975"
   opacity="1"
   stroke="none"
   d="m 378.09542,720.07649 c -6.05812,3.98006 -5.65666,9.45008 -3.90179,14.58173 -37.35131,29.06363 -49.77673,48.09074 -68.99626,56.88446 23.49394,-21.78678 44.6009,-58.9768 69.89577,-72.7903 1.21731,-0.1239 1.96906,0.71806 3.00228,1.32411 z"
   id="path76"
   sodipodi:nodetypes="ccccc" />


<path
   id="path82"
   d="m 340.99219,444.54102 c -10.89775,34.88516 -31.37484,62.75382 -48.52539,92.70312 28.87189,-17.2329 64.64266,-66.58297 48.52539,-92.70312 z"
   sodipodi:nodetypes="ccc"
   style="fill:#7eee97;fill-opacity:1" />


<path
   id="path88"
   d="m 717.86523,497.50781 c -1.77795,1.457 -4.2074,2.43988 -6.06445,-1.17187 -1.18585,-0.002 -1.94781,0.3414 -2.70898,0.68359 -6.4519,6.99331 -12.90345,13.98591 -19.69141,21.32422 -5.9762,7.04192 -10.21061,21.18391 -13.89453,26.42969 0.39551,0.85998 1.45453,1.65814 1.83203,1.41211 22.35429,-14.6347 68.80083,-52.14317 62.72484,-70.70037 -5.61166,9.09024 -14.9788,16.0833 -22.1975,22.02263 z"
   sodipodi:nodetypes="cccccccc"
   style="fill:#88e5a4;fill-opacity:1" />








<path
   fill="#7BE097"
   opacity="1.000000"
   stroke="none"
   d=" M523.842651,558.305847   C523.499451,557.701660 522.965820,556.722473 523.251648,556.306763   C530.129211,546.303101 537.091248,536.357483 544.055847,526.413818   C544.328613,526.024414 544.777344,525.758240 545.472778,525.144714   C548.139893,527.246521 550.818909,529.357727 554.037720,531.894287   C545.885803,542.999329 535.942139,551.681274 523.842651,558.305847  z"
   id="path106" />






<path
   fill="#7BE79A"
   opacity="1.000000"
   stroke="none"
   d=" M753.712769,364.201202   C754.913940,358.833160 756.211670,353.830811 757.509460,348.828461   C758.217041,348.778687 758.924622,348.728912 759.632202,348.679138   C763.538513,356.409821 767.444824,364.140472 771.362366,371.893341   C764.908386,374.934723 757.895691,371.795319 753.712769,364.201202  z"
   id="path120"
   inkscape:label="path120" />






















<path
   fill="#7DD39B"
   opacity="1.000000"
   stroke="none"
   d=" M721.819336,309.205078   C714.385498,304.455292 713.242065,301.566376 716.822937,295.489990   C721.857666,301.018188 726.730164,306.368317 731.602722,311.718445   C731.295288,312.183502 730.987915,312.648529 730.680481,313.113586   C727.836304,311.869171 724.992126,310.624786 721.819336,309.205078  z"
   id="path166" />
<path
   fill="#7DD39B"
   opacity="1.000000"
   stroke="none"
   d=" M638.600769,496.900757   C646.104065,497.793945 653.186584,498.623810 660.269165,499.453674   C660.196838,499.955444 660.124573,500.457245 660.052307,500.959015   C649.838440,502.834930 639.875610,502.834900 630.867004,495.518921   C633.304688,495.958435 635.742371,496.397919 638.600769,496.900757  z"
   id="path168" />




















































































































































































































































































































































<path
   id="path13314"
   style="display:inline;opacity:1;fill:none;stroke:#fbfdda;stroke-width:10.2095;stroke-dasharray:none;stroke-opacity:1"
   d="M 290.16117,763.35907 C 217.78644,700.97618 171.96871,608.63123 171.96871,505.58498 c 0,-187.87527 152.30299,-340.17826 340.17826,-340.17826 187.87527,0 340.17826,152.30299 340.17826,340.17826 0,187.87527 -152.30299,340.17826 -340.17826,340.17826 -64.17969,0 -124.20825,-17.77315 -175.43229,-48.66608"
   sodipodi:nodetypes="cssssc"
   inkscape:label="Outer Circle" /><path
   id="path13314-3"
   style="display:inline;fill:none;stroke:#f5e977;stroke-width:9.35897;stroke-dasharray:none;stroke-opacity:1"
   d="M 307.29788,740.71056 C 240.94939,683.52218 198.94648,598.8662 198.94648,504.39999 c 0,-172.23179 139.62171,-311.85351 311.85351,-311.85351 172.23181,0 311.85352,139.62172 311.85352,311.85351 0,172.23181 -139.62171,311.85358 -311.85352,311.85358 -58.83586,0 -109.48285,-13.62981 -156.44196,-41.95026"
   sodipodi:nodetypes="cssssc"
   inkscape:label="Inner Circle" /></svg>
